<svg width="76" height="77" viewBox="0 0 76 77" fill="none" xmlns="http://www.w3.org/2000/svg">
<path d="M13.3027 61.9824C13.2832 61.2923 13.2539 60.6022 13.2148 59.9121C13.2083 59.8145 13.2051 59.7461 13.2051 59.707C13.2051 59.0234 13.612 58.6816 14.4258 58.6816C15.2201 58.6816 15.6204 59.0592 15.627 59.8145C15.627 59.86 15.6432 60.4492 15.6758 61.582L15.6855 61.7969C16.7012 61.7188 17.7493 61.6406 18.8301 61.5625C19.4225 61.5234 19.849 61.4909 20.1094 61.4648C20.2135 61.4583 20.2982 61.4551 20.3633 61.4551C20.6953 61.4551 20.9557 61.5788 21.1445 61.8262C21.2943 62.028 21.3691 62.2786 21.3691 62.5781C21.3691 63.151 21.1413 63.5189 20.6855 63.6816C20.5814 63.7142 20.3568 63.7402 20.0117 63.7598C19.5495 63.7858 18.4948 63.8542 16.8477 63.9648L16.0762 64.0137L15.7051 64.043C15.7441 66.2174 15.7637 67.5814 15.7637 68.1348C15.7637 68.9876 15.6595 69.6289 15.4512 70.0586C15.36 72.4284 14.4551 74.2546 12.7363 75.5371C12.2741 75.8822 11.8867 76.0547 11.5742 76.0547C11.2747 76.0547 11.0469 75.9505 10.8906 75.7422C10.7604 75.5664 10.6953 75.3841 10.6953 75.1953C10.6953 74.8893 10.9167 74.5573 11.3594 74.1992C12.0495 73.6393 12.5573 72.9134 12.8828 72.0215C12.6875 72.0605 12.515 72.0801 12.3652 72.0801C11.6882 72.0801 10.9883 71.735 10.2656 71.0449C9.49089 70.3027 9.10352 69.4857 9.10352 68.5938C9.10352 67.6172 9.57227 66.7643 10.5098 66.0352C11.1543 65.5339 11.7891 65.2832 12.4141 65.2832C12.7266 65.2832 13.0651 65.3548 13.4297 65.498C13.4232 65.3874 13.4134 65.1335 13.4004 64.7363C13.4004 64.6061 13.3971 64.4336 13.3906 64.2188C11.5677 64.375 9.92057 64.5215 8.44922 64.6582C6.98438 64.7884 6.20312 64.8535 6.10547 64.8535C5.36328 64.8535 4.99219 64.4661 4.99219 63.6914C4.99219 63.0273 5.32747 62.653 5.99805 62.5684C6.37565 62.5163 8.62174 62.334 12.7363 62.0215L13.3027 61.9824ZM13.3027 69.5996L13.3223 69.0039C13.3223 67.6953 13.0456 67.041 12.4922 67.041C12.2318 67.041 11.9518 67.1842 11.6523 67.4707C11.3138 67.8027 11.1445 68.138 11.1445 68.4766C11.1445 68.9518 11.3724 69.401 11.8281 69.8242C12.0951 70.0716 12.3359 70.1953 12.5508 70.1953C12.7591 70.1953 12.9544 70.0781 13.1367 69.8438C13.2474 69.7005 13.3027 69.6191 13.3027 69.5996ZM34.0742 63.7012C34.0352 62.8288 33.9831 61.8945 33.918 60.8984C33.9115 60.7878 33.9082 60.6934 33.9082 60.6152C33.9082 59.873 34.3184 59.502 35.1387 59.502C35.8353 59.502 36.2227 59.8242 36.3008 60.4688C36.3464 60.8138 36.4017 61.7969 36.4668 63.418L36.584 63.4082C37.3717 63.3301 37.8405 63.2812 37.9902 63.2617C38.0814 63.2487 38.179 63.2422 38.2832 63.2422C39.0775 63.2422 39.4746 63.6035 39.4746 64.3262C39.4746 64.8926 39.2793 65.2539 38.8887 65.4102C38.7585 65.4688 38.5729 65.5111 38.332 65.5371C38.1953 65.5501 37.834 65.5892 37.248 65.6543C37.0137 65.6803 36.7663 65.7096 36.5059 65.7422L36.5156 65.9863C36.5417 67.8678 36.5547 68.9258 36.5547 69.1602C36.5547 71.7448 35.5586 73.8086 33.5664 75.3516C33.0846 75.7292 32.7005 75.918 32.4141 75.918C32.1276 75.918 31.8997 75.8073 31.7305 75.5859C31.5872 75.4036 31.5156 75.2116 31.5156 75.0098C31.5156 74.7363 31.6458 74.4792 31.9062 74.2383C32.9154 73.3333 33.5957 72.2559 33.9473 71.0059C34.1035 70.4655 34.1816 69.7233 34.1816 68.7793C34.1816 68.4538 34.1719 67.6237 34.1523 66.2891V65.9961L33.8887 66.0254C31.7207 66.2533 30.5846 66.3672 30.4805 66.3672C30.0703 66.3672 29.7741 66.2207 29.5918 65.9277C29.4681 65.7324 29.4062 65.5013 29.4062 65.2344C29.4062 64.6289 29.7415 64.2676 30.4121 64.1504C30.8939 64.0658 32.1146 63.916 34.0742 63.7012ZM26.6328 71.1426C26.9128 70.472 27.1471 69.9902 27.3359 69.6973C27.5117 69.4108 27.7266 69.2676 27.9805 69.2676C28.0977 69.2676 28.2083 69.2904 28.3125 69.3359C28.5664 69.4531 28.6934 69.6647 28.6934 69.9707C28.6934 70.0944 28.625 70.293 28.4883 70.5664C28.3125 70.918 28.0293 71.6536 27.6387 72.7734C27.4499 73.3008 27.2871 73.6654 27.1504 73.8672C26.89 74.2643 26.5612 74.4629 26.1641 74.4629C25.6172 74.4629 25.2005 74.1309 24.9141 73.4668C24.4714 72.4447 24.25 70.8789 24.25 68.7695C24.25 67.0052 24.416 64.8275 24.748 62.2363C24.8197 61.6634 24.8913 61.2858 24.9629 61.1035C25.1387 60.6413 25.5065 60.4102 26.0664 60.4102C26.8607 60.4102 27.2578 60.7715 27.2578 61.4941C27.2578 61.6113 27.2285 61.849 27.1699 62.207C26.9616 63.3789 26.7728 64.9772 26.6035 67.002C26.5514 67.5684 26.5254 68.0794 26.5254 68.5352C26.5254 69.375 26.5612 70.2441 26.6328 71.1426ZM45.7344 62.4414C45.9948 61.2695 46.2096 60.3678 46.3789 59.7363C46.5286 59.1764 46.8867 58.8965 47.4531 58.8965C47.7721 58.8965 48.0586 58.9714 48.3125 59.1211C48.6185 59.2969 48.7715 59.5638 48.7715 59.9219C48.7715 60.0521 48.638 60.6217 48.3711 61.6309C48.3125 61.8327 48.2669 62.0085 48.2344 62.1582C49.5885 61.9694 50.6465 61.7904 51.4082 61.6211C51.6426 61.569 51.8411 61.543 52.0039 61.543C52.7201 61.543 53.0781 61.9303 53.0781 62.7051C53.0781 63.265 52.7721 63.6198 52.1602 63.7695C51.1641 64.0104 49.6634 64.248 47.6582 64.4824L47.5605 64.8438C47.1699 66.4583 46.8932 67.6432 46.7305 68.3984C48.2279 67.5977 49.709 67.1973 51.1738 67.1973C54.0384 67.1973 55.4707 68.3659 55.4707 70.7031C55.4707 72.4023 54.5951 73.7044 52.8438 74.6094C51.9583 75.0716 50.8939 75.4102 49.6504 75.625C49.1491 75.7161 48.8073 75.7617 48.625 75.7617C48.1497 75.7617 47.8372 75.5762 47.6875 75.2051C47.6289 75.0553 47.5996 74.9121 47.5996 74.7754C47.5996 74.4434 47.7689 74.196 48.1074 74.0332C48.1921 73.9941 48.4818 73.9225 48.9766 73.8184C50.1094 73.5775 51.0306 73.2096 51.7402 72.7148C52.5085 72.1875 52.8926 71.5397 52.8926 70.7715C52.8926 69.6582 52.2546 69.1016 50.9785 69.1016C49.4811 69.1016 47.9707 69.6875 46.4473 70.8594C46.1217 71.1133 45.7832 71.2402 45.4316 71.2402C45.0866 71.2402 44.7904 71.123 44.543 70.8887C44.276 70.6348 44.1426 70.3092 44.1426 69.9121C44.1426 69.6777 44.4648 68.0892 45.1094 65.1465L45.1973 64.7363C44.1556 64.834 43.3288 64.8828 42.7168 64.8828C41.9421 64.8828 41.5547 64.502 41.5547 63.7402C41.5547 63.2715 41.7109 62.9427 42.0234 62.7539C42.1927 62.6497 42.4727 62.5977 42.8633 62.5977C43.5599 62.5977 44.5169 62.5456 45.7344 62.4414ZM63.5859 70.7812V63.1836C63.5859 62.513 63.9277 62.1777 64.6113 62.1777C65.2884 62.1777 65.627 62.513 65.627 63.1836V65.5762C66.7728 65.459 67.5801 65.3353 68.0488 65.2051C68.1595 65.1725 68.2799 65.1562 68.4102 65.1562C69.0612 65.1562 69.3867 65.4818 69.3867 66.1328C69.3867 66.6276 69.1198 66.9401 68.5859 67.0703C67.8372 67.2526 66.8509 67.3763 65.627 67.4414V71.2207C66.9811 71.6178 68.1855 72.1322 69.2402 72.7637C69.6829 73.0306 69.9043 73.3691 69.9043 73.7793C69.9043 74.0072 69.8457 74.209 69.7285 74.3848C69.5462 74.6712 69.2858 74.8145 68.9473 74.8145C68.7259 74.8145 68.4655 74.7135 68.166 74.5117C67.4889 74.056 66.6165 73.6133 65.5488 73.1836C65.1712 74.7917 64.0059 75.5957 62.0527 75.5957C60.9785 75.5957 60.0801 75.2669 59.3574 74.6094C58.8431 74.1406 58.5859 73.6165 58.5859 73.0371C58.5859 72.4512 58.8822 71.9368 59.4746 71.4941C60.1908 70.9538 61.099 70.6836 62.1992 70.6836C62.5768 70.6836 63.0391 70.7161 63.5859 70.7812ZM63.5859 72.5586C63.0391 72.4544 62.5378 72.4023 62.082 72.4023C61.5807 72.4023 61.1934 72.474 60.9199 72.6172C60.6986 72.7409 60.5879 72.8939 60.5879 73.0762C60.5879 73.2259 60.6921 73.3757 60.9004 73.5254C61.1934 73.7337 61.571 73.8379 62.0332 73.8379C62.9707 73.8379 63.485 73.444 63.5762 72.6562L63.5859 72.5586Z" fill="white"/>
<path d="M57.2 4.81818H54.8V0H50V4.81818H26V0H21.2V4.81818H18.8C16.16 4.81818 14 6.98636 14 9.63636V48.1818C14 50.8318 16.16 53 18.8 53H57.2C59.84 53 62 50.8318 62 48.1818V9.63636C62 6.98636 59.84 4.81818 57.2 4.81818ZM57.2 48.1818H18.8V21.6818H57.2V48.1818ZM57.2 16.8636H18.8V9.63636H57.2V16.8636Z" fill="white"/>
</svg>
